Results
version=1
nRows=17
nColumns=24
inDegrees=yes
endheader
time	pelvis_tilt	pelvis_list	pelvis_rotation	pelvis_tx	pelvis_ty	pelvis_tz	hip_flexion_r	hip_adduction_r	hip_rotation_r	knee_angle_r	ankle_angle_r	subtalar_angle_r	mtp_angle_r	hip_flexion_l	hip_adduction_l	hip_rotation_l	knee_angle_l	ankle_angle_l	subtalar_angle_l	mtp_angle_l	lumbar_extension	lumbar_bending	lumbar_rotation
      0.75800000	     -4.61128444	     -4.10081564	      4.18584579	     -0.42624866	      1.02132101	      0.31126628	     18.25117866	      8.39678557	     -4.24732948	    -16.50845711	      2.81107101	     -5.81473597	     12.51139177	     23.66456928	     -5.33626306	     -3.42508460	    -66.71321451	     -1.60673642	     -3.95761799	      4.99385751	     -2.26135841	      1.89363200	      1.89243105
      0.76216667	     -4.64038161	     -4.00187063	      4.14173536	     -0.42120085	      1.02203774	      0.31149554	     17.86191914	      8.34826927	     -4.16441970	    -16.32635193	      2.97462389	     -5.71139593	     12.50062815	     24.19503622	     -5.25362562	     -3.47695072	    -66.18543635	     -1.21091211	     -4.32296286	      4.92696307	     -2.30141427	      1.75028232	      2.04754962
      0.76633333	     -4.65286798	     -3.92061386	      4.11403609	     -0.41610216	      1.02278070	      0.31169738	     17.43898251	      8.31294439	     -4.12565766	    -16.10602268	      3.09401682	     -5.64281925	     12.49375589	     24.68652442	     -5.18680788	     -3.51637846	    -65.58212285	     -0.78791862	     -4.63412217	      4.89125582	     -2.31090897	      1.63898678	      2.11091541
      0.77050000	     -4.65666610	     -3.80769540	      4.07738455	     -0.41105182	      1.02353927	      0.31189451	     17.01123651	      8.24637191	     -4.05415908	    -15.90026595	      3.24197531	     -5.53455164	     12.47870931	     25.13875104	     -5.07470293	     -3.55347416	    -64.88577201	     -0.43149394	     -4.98631114	      4.81933977	     -2.38074870	      1.49517656	      2.21951769
      0.77466667	     -4.64518305	     -3.70401294	      4.04356095	     -0.40596148	      1.02431507	      0.31208492	     16.55813109	      8.18740374	     -4.01102176	    -15.67539195	      3.38629422	     -5.41820115	     12.45390842	     25.54893035	     -4.97366921	     -3.59240136	    -64.11208434	     -0.09484180	     -5.31319631	      4.71656087	     -2.43135116	      1.34646982	      2.32218444
      0.77883333	     -4.65802378	     -3.61708411	      4.01284860	     -0.40089783	      1.02501038	      0.31226291	     16.13497036	      8.14315923	     -3.96992977	    -15.44756303	      3.48201643	     -5.35341285	     12.44460945	     25.97360045	     -4.88198965	     -3.61528173	    -63.28795190	      0.30490613	     -5.57924301	      4.68136239	     -2.46502475	      1.22683991	      2.35580269
      0.78300000	     -4.63588513	     -3.48184219	      3.96706622	     -0.39584150	      1.02578543	      0.31244125	     15.67325777	      8.05166465	     -3.89914427	    -15.23254126	      3.63317992	     -5.22652548	     12.41679195	     26.31196512	     -4.73369388	     -3.65027657	    -62.34685173	      0.57496366	     -5.89540183	      4.57560096	     -2.56080809	      1.05794831	      2.45437053
      0.78716667	     -4.60606004	     -3.36449843	      3.92399670	     -0.39079209	      1.02653883	      0.31261132	     15.20343140	      7.97740913	     -3.84799253	    -15.00825655	      3.75683438	     -5.11765761	     12.38608453	     26.62447444	     -4.60259616	     -3.67447644	    -61.34930392	      0.88858160	     -6.15717001	      4.46853755	     -2.65951807	      0.91007250	      2.52686395
      0.79133333	     -4.61228641	     -3.24852277	      3.87367920	     -0.38575121	      1.02720395	      0.31278629	     14.77824226	      7.90218746	     -3.78825381	    -14.79403501	      3.87820251	     -5.01904360	     12.35338731	     26.95231534	     -4.46637484	     -3.69345591	    -60.28514278	      1.18093049	     -6.39859355	      4.35948365	     -2.71582536	      0.76019033	      2.59087054
      0.79550000	     -4.58676011	     -3.11964974	      3.81403043	     -0.38072890	      1.02791580	      0.31296407	     14.32128111	      7.81641090	     -3.72081298	    -14.58294538	      3.97959671	     -4.93346719	     12.32891219	     27.21232950	     -4.31663359	     -3.71648944	    -59.14047041	      1.48196776	     -6.60777984	      4.28145612	     -2.82230399	      0.60387093	      2.64499964
      0.79966667	     -4.55267344	     -3.00285218	      3.75702856	     -0.37570017	      1.02860366	      0.31313024	     13.84919178	      7.74168239	     -3.65629183	    -14.35712262	      4.11319494	     -4.80556795	     12.28406115	     27.43968565	     -4.17388712	     -3.72150420	    -57.92879992	      1.70955830	     -6.82839743	      4.14179468	     -2.93139963	      0.45526440	      2.73783752
      0.80383333	     -4.56417622	     -2.88198240	      3.68160136	     -0.37069076	      1.02917702	      0.31331328	     13.44190491	      7.66103043	     -3.57863594	    -14.16100837	      4.20898543	     -4.73762545	     12.26130660	     27.68923413	     -4.02726798	     -3.73611378	    -56.65645730	      1.98477247	     -6.97610598	      4.07378663	     -2.98639481	      0.29873913	      2.77633764
      0.80800000	     -4.54007223	     -2.76001872	      3.60149900	     -0.36568151	      1.02978596	      0.31350328	     12.99219109	      7.58278839	     -3.49059801	    -13.95554563	      4.32146497	     -4.65343227	     12.23707365	     27.86924104	     -3.88013311	     -3.74488857	    -55.30824758	      2.20193609	     -7.13153129	      3.99979168	     -3.08837038	      0.14317007	      2.84120855
      0.81216667	     -4.51417934	     -2.63730624	      3.51568277	     -0.36068147	      1.03038218	      0.31368562	     12.54223038	      7.50159908	     -3.40322554	    -13.74933506	      4.43858655	     -4.55527691	     12.20819257	     28.01668669	     -3.72812213	     -3.74732271	    -53.88556838	      2.37579640	     -7.28026865	      3.91315784	     -3.19179476	     -0.00876530	      2.92074582
      0.81633333	     -4.50900861	     -2.52458575	      3.41824042	     -0.35568730	      1.03088730	      0.31388236	     12.12289416	      7.43014311	     -3.30682893	    -13.55854003	      4.55377016	     -4.46682345	     12.17961651	     28.16269468	     -3.58653790	     -3.74345544	    -52.40853299	      2.53931987	     -7.40946982	      3.82774593	     -3.26996879	     -0.15521273	      2.99861652
      0.82050000	     -4.47330866	     -2.43343619	      3.32325820	     -0.35069051	      1.03141062	      0.31405999	     11.66325802	      7.38127479	     -3.21533263	    -13.34554878	      4.68942263	     -4.35428239	     12.12930356	     28.25149079	     -3.46584974	     -3.72538326	    -50.86819520	      2.64273413	     -7.55955063	      3.68222780	     -3.37874199	     -0.26251761	      3.11801749
      0.82466667	     -4.48630430	     -2.31692240	      3.19942505	     -0.34571483	      1.03182213	      0.31427258	     11.27883428	      7.30435901	     -3.09986041	    -13.18149870	      4.78596227	     -4.28534071	     12.09929615	     28.35465001	     -3.32272934	     -3.72585316	    -49.25540086	      2.77460255	     -7.64379166	      3.59447909	     -3.43806333	     -0.41814587	      3.17953298
